<svg xmlns="http://www.w3.org/2000/svg" viewBox="0 0 2125.984 1771.653">
    <title>F4</title>
    <path d="M137.428 869.84L994.65 220.543l662.757-79.173 229.662 1028.87-108.752 216.147-287.148-95.7-58.934 83.321-378.886-112.724-275.217 337.98-212.625-105.002z" stroke="#000"/>
    <path d="M137.043 870.337L992 221.653l666-80 228 1030-108 216-290-98-54 86-378-112-276 332-218-100z" fill="none"/>
    <path d="M224.381 903.492l165.357 16.535 361.151 606.935-164.14-65.506zm527.866-270.545L1158.8 648.35l185.703 466.536z" fill="#bbdef2"/>
    <path d="M418.917 914.066l317.765-276.13 295.99 579.224-266.744 299.7zm333.33-281.126l592.249 481.937 79.39 199.167-363.195-97.063zm751.901 629.571l158.824-249.728 91.502 317.611z" fill="#1757a1"/>
    <path d="M1175.11 637.797l145.124-143.15 166.64 452.408 123.412-160.794-132.054-463.55 133.411-134.75 241.699 982.025-87.495 146.455-100.04-348.89-233.254 331.994z" fill="#619fd0"/>
    <path d="M912.396 469.707l131.192-114.62 422.19-28.922 135.395 454.002-114.421 147.895-166.59-450.101z" fill="#022e5f"/>
    <path d="M220.316 882.636l788.204-625.754 588.219-66.258-127.683 126.732-428.07 31.523L899.28 474.347l413.608 10.383-146.658 146.364-431.413-12.395-339.463 280.316z" fill="#fff"/>
</svg>
